<svg class="photo" xmlns="http://www.w3.org/2000/svg" viewBox="0 0 200 57.61">
  <defs>
    <style>
      .cls-1 {
        fill: #ffffff;
      }

      .cls-1, .cls-2 {
        stroke-width: 0px;
      }

      .cls-2 {
        fill: #ffffff;
      }
    </style>
  </defs>
  <g>
    <g>
      <path class="cls-1" d="M20.41,21.32v1.01h-2.98v-1.22c0-5-1.9-8.79-7.05-8.79s-7.05,3.72-7.05,8.72c0,11.49,17.16,11.69,17.16,24.73,0,6.83-2.98,11.83-10.24,11.83S0,52.61,0,45.79v-2.43h2.98v2.64c0,5.07,1.97,8.72,7.19,8.72s7.19-3.65,7.19-8.72C17.36,34.64.2,34.43.2,21.26.2,14.16,3.32,9.56,10.31,9.5c7.19,0,10.11,5,10.11,11.83Z"></path>
      <path class="cls-1" d="M33.71,57.21V12.74h-9.7v-2.84h22.45v2.84h-9.63v44.47h-3.12Z"></path>
      <path class="cls-1" d="M52.49,46.73l-2.37,10.48h-2.85l10.38-47.37h4.54l10.58,47.37h-3.12l-2.37-10.48h-14.79ZM52.97,44.03h13.84l-6.99-30.61-6.85,30.61Z"></path>
      <path class="cls-1" d="M87.28,39.03l-10.65-29.13h3.26l9.09,24.87,9.09-24.87h3.05l-10.72,29.13v18.18h-3.12v-18.18Z"></path>
      <path class="cls-2" d="M121.06,32.95v2.84h-12.28v21.42h-3.12V9.9h18.04v2.84h-14.92v20.21h12.28Z"></path>
      <path class="cls-2" d="M128.45,57.21V9.9h3.12v44.47h14.92v2.84h-18.04Z"></path>
      <path class="cls-2" d="M167.24,31.8v2.84h-12.95v19.73h15.6v2.84h-18.72V9.9h18.72v2.84h-15.6v19.06h12.95Z"></path>
      <path class="cls-2" d="M187.05,35.18l-9.63,22.03h-3.05l10.72-24.53-9.97-22.77h3.25l8.95,20.34,9.02-20.34h2.98l-9.97,22.77,10.65,24.53h-3.32l-9.63-22.03Z"></path>
      <path class="cls-1" d="M167.85,0l-5.76,6.42h-2.44s4.82-6.42,4.82-6.42h3.39Z"></path>
    </g>
  </g>
</svg>